<mxfile host="app.diagrams.net" agent="Mozilla/5.0 (Windows NT 10.0; Win64; x64) AppleWebKit/537.36 (KHTML, like Gecko) Chrome/135.0.0.0 Safari/537.36" version="26.2.14">
  <diagram name="Trang-1" id="8dh_iJ-mj9WypEKNQmr2">
    <mxGraphModel dx="1281" dy="561" grid="1" gridSize="10" guides="1" tooltips="1" connect="1" arrows="1" fold="1" page="1" pageScale="1" pageWidth="827" pageHeight="1169" math="0" shadow="0">
      <root>
        <mxCell id="0" />
        <mxCell id="1" parent="0" />
        <mxCell id="TJnkYudBK4qgaoj1K8mH-6" style="edgeStyle=orthogonalEdgeStyle;rounded=0;orthogonalLoop=1;jettySize=auto;html=1;exitX=0.185;exitY=1;exitDx=0;exitDy=0;exitPerimeter=0;entryX=0.188;entryY=-0.013;entryDx=0;entryDy=0;entryPerimeter=0;" edge="1" parent="1" source="TJnkYudBK4qgaoj1K8mH-1" target="TJnkYudBK4qgaoj1K8mH-2">
          <mxGeometry relative="1" as="geometry">
            <mxPoint x="161.15999999999997" y="174.01999999999998" as="sourcePoint" />
            <mxPoint x="161.15999999999997" y="302.82000000000005" as="targetPoint" />
            <Array as="points" />
          </mxGeometry>
        </mxCell>
        <mxCell id="TJnkYudBK4qgaoj1K8mH-7" value="1. Nhập thông tin" style="edgeLabel;html=1;align=center;verticalAlign=middle;resizable=0;points=[];rotation=90;" vertex="1" connectable="0" parent="TJnkYudBK4qgaoj1K8mH-6">
          <mxGeometry x="-0.17" y="-1" relative="1" as="geometry">
            <mxPoint x="-19" y="7" as="offset" />
          </mxGeometry>
        </mxCell>
        <mxCell id="TJnkYudBK4qgaoj1K8mH-1" value="KhachHang" style="rounded=0;whiteSpace=wrap;html=1;" vertex="1" parent="1">
          <mxGeometry x="340" y="80" width="120" height="60" as="geometry" />
        </mxCell>
        <mxCell id="TJnkYudBK4qgaoj1K8mH-13" style="edgeStyle=orthogonalEdgeStyle;rounded=0;orthogonalLoop=1;jettySize=auto;html=1;entryX=0.75;entryY=1;entryDx=0;entryDy=0;exitX=0.75;exitY=0;exitDx=0;exitDy=0;" edge="1" parent="1" source="TJnkYudBK4qgaoj1K8mH-2" target="TJnkYudBK4qgaoj1K8mH-1">
          <mxGeometry relative="1" as="geometry">
            <mxPoint x="230" y="290" as="sourcePoint" />
          </mxGeometry>
        </mxCell>
        <mxCell id="TJnkYudBK4qgaoj1K8mH-14" value="4. Thông báo kết quả" style="edgeLabel;html=1;align=center;verticalAlign=middle;resizable=0;points=[];rotation=90;" vertex="1" connectable="0" parent="TJnkYudBK4qgaoj1K8mH-13">
          <mxGeometry x="-0.1533" relative="1" as="geometry">
            <mxPoint x="30" y="-9" as="offset" />
          </mxGeometry>
        </mxCell>
        <mxCell id="TJnkYudBK4qgaoj1K8mH-2" value="Giao diện đăng nhập&amp;nbsp;" style="rounded=0;whiteSpace=wrap;html=1;" vertex="1" parent="1">
          <mxGeometry x="340" y="310" width="120" height="60" as="geometry" />
        </mxCell>
        <mxCell id="TJnkYudBK4qgaoj1K8mH-11" style="edgeStyle=orthogonalEdgeStyle;rounded=0;orthogonalLoop=1;jettySize=auto;html=1;entryX=0.75;entryY=1;entryDx=0;entryDy=0;exitX=0.75;exitY=0;exitDx=0;exitDy=0;" edge="1" parent="1" source="TJnkYudBK4qgaoj1K8mH-3" target="TJnkYudBK4qgaoj1K8mH-2">
          <mxGeometry relative="1" as="geometry">
            <mxPoint x="230" y="490" as="sourcePoint" />
          </mxGeometry>
        </mxCell>
        <mxCell id="TJnkYudBK4qgaoj1K8mH-12" value="3. Phản hồi" style="edgeLabel;html=1;align=center;verticalAlign=middle;resizable=0;points=[];rotation=90;" vertex="1" connectable="0" parent="TJnkYudBK4qgaoj1K8mH-11">
          <mxGeometry x="0.0686" y="2" relative="1" as="geometry">
            <mxPoint x="22" y="5" as="offset" />
          </mxGeometry>
        </mxCell>
        <mxCell id="TJnkYudBK4qgaoj1K8mH-3" value="Hệ thống" style="rounded=0;whiteSpace=wrap;html=1;" vertex="1" parent="1">
          <mxGeometry x="340" y="525" width="120" height="60" as="geometry" />
        </mxCell>
        <mxCell id="TJnkYudBK4qgaoj1K8mH-9" style="edgeStyle=orthogonalEdgeStyle;rounded=0;orthogonalLoop=1;jettySize=auto;html=1;entryX=0.167;entryY=0;entryDx=0;entryDy=0;entryPerimeter=0;exitX=0.173;exitY=1.033;exitDx=0;exitDy=0;exitPerimeter=0;" edge="1" parent="1" source="TJnkYudBK4qgaoj1K8mH-2" target="TJnkYudBK4qgaoj1K8mH-3">
          <mxGeometry relative="1" as="geometry" />
        </mxCell>
        <mxCell id="TJnkYudBK4qgaoj1K8mH-10" value="2. Xác thực thông tin" style="edgeLabel;html=1;align=center;verticalAlign=middle;resizable=0;points=[];rotation=90;" vertex="1" connectable="0" parent="TJnkYudBK4qgaoj1K8mH-9">
          <mxGeometry x="-0.1824" y="2" relative="1" as="geometry">
            <mxPoint x="-23" as="offset" />
          </mxGeometry>
        </mxCell>
        <mxCell id="TJnkYudBK4qgaoj1K8mH-16" value="&amp;nbsp;Lưu thông tin (Đăng kí)" style="edgeLabel;html=1;align=center;verticalAlign=middle;resizable=0;points=[];rotation=90;" vertex="1" connectable="0" parent="TJnkYudBK4qgaoj1K8mH-9">
          <mxGeometry x="-0.3053" y="1" relative="1" as="geometry">
            <mxPoint x="-42" y="20" as="offset" />
          </mxGeometry>
        </mxCell>
      </root>
    </mxGraphModel>
  </diagram>
</mxfile>
